<?xml version="1.0" encoding="UTF-8" standalone="no"?>
<svg
   xmlns:dc="http://purl.org/dc/elements/1.1/"
   xmlns:cc="http://creativecommons.org/ns#"
   xmlns:rdf="http://www.w3.org/1999/02/22-rdf-syntax-ns#"
   xmlns:svg="http://www.w3.org/2000/svg"
   xmlns="http://www.w3.org/2000/svg"
   xmlns:sodipodi="http://sodipodi.sourceforge.net/DTD/sodipodi-0.dtd"
   xmlns:inkscape="http://www.inkscape.org/namespaces/inkscape"
   width="31.011873"
   height="31.011877"
   viewBox="0 0 31.011873 31.011878"
   version="1.1"
   id="SVGRoot"
   inkscape:version="0.92.3 (2405546, 2018-03-11)"
   sodipodi:docname="chain-border.svg">
  <sodipodi:namedview
     pagecolor="#353535"
     bordercolor="#666666"
     borderopacity="1"
     objecttolerance="10"
     gridtolerance="10"
     guidetolerance="10"
     inkscape:pageopacity="0"
     inkscape:pageshadow="2"
     inkscape:window-width="640"
     inkscape:window-height="480"
     id="namedview6"
     showgrid="false"
     inkscape:zoom="16"
     inkscape:cx="19.689543"
     inkscape:cy="11.450587"
     inkscape:current-layer="SVGRoot"
     showborder="false"
     showguides="true"
     units="px"
     inkscape:document-units="px"
     inkscape:guide-bbox="true">
    <inkscape:grid
       type="xygrid"
       id="grid816"
       originx="276.00914"
       originy="-458.98772" />
    <sodipodi:guide
       position="18.328306,20.493824"
       orientation="0,1"
       id="guide1017"
       inkscape:locked="false"
       inkscape:label=""
       inkscape:color="rgb(0,0,255)" />
    <sodipodi:guide
       position="10,0"
       orientation="0,1"
       id="guide1019"
       inkscape:locked="true"
       inkscape:label=""
       inkscape:color="rgb(0,0,255)" />
    <sodipodi:guide
       position="10.505937,10.505941"
       orientation="1,0"
       id="guide1021"
       inkscape:locked="false"
       inkscape:label=""
       inkscape:color="rgb(0,0,255)" />
    <sodipodi:guide
       position="20.505937,5.5434593"
       orientation="1,0"
       id="guide1023"
       inkscape:locked="false"
       inkscape:label=""
       inkscape:color="rgb(0,0,255)" />
    <sodipodi:guide
       position="10.505937,10.505941"
       orientation="0,26.006424"
       id="guide3028"
       inkscape:locked="false" />
    <sodipodi:guide
       position="10.505937,21.518692"
       orientation="11.012751,0"
       id="guide3034"
       inkscape:locked="false" />
    <sodipodi:guide
       position="4.3798943e-09,5.7325466e-07"
       orientation="0,31.011871"
       id="guide3112"
       inkscape:locked="false" />
    <sodipodi:guide
       position="31.011872,5.7325466e-07"
       orientation="-31.011877,0"
       id="guide3114"
       inkscape:locked="false" />
    <sodipodi:guide
       position="31.011872,31.011878"
       orientation="0,-31.011871"
       id="guide3116"
       inkscape:locked="false" />
    <sodipodi:guide
       position="4.3798943e-09,31.011878"
       orientation="31.011877,0"
       id="guide3118"
       inkscape:locked="false" />
    <sodipodi:guide
       position="0,0"
       orientation="0,31.011873"
       id="guide3120"
       inkscape:locked="false" />
    <sodipodi:guide
       position="31.011874,0"
       orientation="-31.011877,0"
       id="guide3122"
       inkscape:locked="false" />
    <sodipodi:guide
       position="31.011874,31.011877"
       orientation="0,-31.011873"
       id="guide3124"
       inkscape:locked="false" />
    <sodipodi:guide
       position="0,31.011877"
       orientation="31.011877,0"
       id="guide3126"
       inkscape:locked="false" />
  </sodipodi:namedview>
  <defs
     id="defs4518" />
  <metadata
     id="metadata4521">
    <rdf:RDF>
      <cc:Work
         rdf:about="">
        <dc:format>image/svg+xml</dc:format>
        <dc:type
           rdf:resource="http://purl.org/dc/dcmitype/StillImage" />
        <dc:title></dc:title>
      </cc:Work>
    </rdf:RDF>
  </metadata>
  <g
     id="layer1"
     transform="translate(276.00915,-10.000456)" />
  <g
     id="layer1-1"
     transform="translate(276.00915,4.9995477)" />
  <g
     id="layer1-0"
     transform="translate(276.00915,19.999548)" />
  <g
     id="layer1-6"
     transform="translate(279.00915,23.999544)" />
  <path
     style="fill:none;stroke:#ffffff;stroke-width:1px;stroke-linecap:round;stroke-linejoin:round;stroke-opacity:1"
     d="m 30.505938,10.505937 c -2,3.000001 -2,7.000001 -5,10.000002 -2.886514,-3.146932 -3,-7.000001 -4.999999,-10.000002"
     id="path1129-5-2-8-7-4-5"
     inkscape:connector-curvature="0"
     sodipodi:nodetypes="ccc" />
  <path
     style="fill:none;stroke:#ffffff;stroke-width:1px;stroke-linecap:round;stroke-linejoin:round;stroke-opacity:1"
     d="m 30.505937,20.50594 c -1.999999,-3.000001 -1.999999,-7.000001 -4.999999,-10.000002 -2.886514,3.146932 -3,7.000001 -4.999999,10.000002"
     id="path1129-5-2-8-7-8-9-0"
     inkscape:connector-curvature="0"
     sodipodi:nodetypes="ccc" />
  <path
     style="fill:none;stroke:#ffffff;stroke-width:1px;stroke-linecap:round;stroke-linejoin:round;stroke-opacity:1"
     d="m 30.505937,20.50594 c -1.999999,3.000001 -1.999999,7.000001 -4.999999,10.000002 -2.886514,-3.146932 -3,-7.000001 -4.999999,-10.000002"
     id="path1129-5-2-8-7-4-5-4"
     inkscape:connector-curvature="0"
     sodipodi:nodetypes="ccc" />
  <path
     style="fill:none;stroke:#ffffff;stroke-width:1px;stroke-linecap:round;stroke-linejoin:round;stroke-opacity:1"
     d="m 30.505936,30.505943 c -1.999998,-3.000001 -1.999998,-7.000001 -4.999998,-10.000002 -2.886514,3.146932 -3,7.000001 -4.999999,10.000002"
     id="path1129-5-2-8-7-8-9-0-8"
     inkscape:connector-curvature="0"
     sodipodi:nodetypes="ccc" />
  <path
     style="fill:none;stroke:#ffffff;stroke-width:1px;stroke-linecap:round;stroke-linejoin:round;stroke-opacity:1"
     d="M 30.505939,0.50593363 C 28.50594,3.5059346 28.50594,7.5059346 25.50594,10.505936 c -2.886514,-3.1469324 -3,-7.0000014 -4.999999,-10.00000237"
     id="path1129-5-2-8-7-4-5-7"
     inkscape:connector-curvature="0"
     sodipodi:nodetypes="ccc" />
  <path
     style="fill:none;stroke:#ffffff;stroke-width:1px;stroke-linecap:round;stroke-linejoin:round;stroke-opacity:1"
     d="M 30.505938,10.505937 C 28.50594,7.5059356 28.50594,3.5059356 25.50594,0.50593463 c -2.886514,3.14693197 -3,7.00000097 -4.999999,10.00000237"
     id="path1129-5-2-8-7-8-9-0-1"
     inkscape:connector-curvature="0"
     sodipodi:nodetypes="ccc" />
  <path
     style="fill:none;stroke:#ffffff;stroke-width:1px;stroke-linecap:round;stroke-linejoin:round;stroke-opacity:1"
     d="m 10.505937,10.505938 c -2.0000004,3.000001 -2.0000004,7.000001 -5.0000004,10.000002 -2.886514,-3.146932 -3,-7.000001 -4.99999897,-10.000002"
     id="path1129-5-2-8-7-4-5-72"
     inkscape:connector-curvature="0"
     sodipodi:nodetypes="ccc" />
  <path
     style="fill:none;stroke:#ffffff;stroke-width:1px;stroke-linecap:round;stroke-linejoin:round;stroke-opacity:1"
     d="M 10.505936,20.505941 C 8.5059366,17.50594 8.5059366,13.50594 5.5059366,10.505939 c -2.886514,3.146932 -3,7.000001 -4.99999897,10.000002"
     id="path1129-5-2-8-7-8-9-0-7"
     inkscape:connector-curvature="0"
     sodipodi:nodetypes="ccc" />
  <path
     style="fill:none;stroke:#ffffff;stroke-width:1px;stroke-linecap:round;stroke-linejoin:round;stroke-opacity:1"
     d="m 10.505936,20.505941 c -1.9999994,3.000001 -1.9999994,7.000001 -4.9999994,10.000002 -2.886514,-3.146932 -3,-7.000001 -4.99999897,-10.000002"
     id="path1129-5-2-8-7-4-5-4-2"
     inkscape:connector-curvature="0"
     sodipodi:nodetypes="ccc" />
  <path
     style="fill:none;stroke:#ffffff;stroke-width:1px;stroke-linecap:round;stroke-linejoin:round;stroke-opacity:1"
     d="M 10.505935,30.505944 C 8.5059366,27.505943 8.5059366,23.505943 5.5059366,20.505942 c -2.886514,3.146932 -3,7.000001 -4.99999897,10.000002"
     id="path1129-5-2-8-7-8-9-0-8-2"
     inkscape:connector-curvature="0"
     sodipodi:nodetypes="ccc" />
  <path
     style="fill:none;stroke:#ffffff;stroke-width:1px;stroke-linecap:round;stroke-linejoin:round;stroke-opacity:1"
     d="M 10.505938,0.50593443 C 8.5059386,3.5059354 8.5059386,7.5059354 5.5059386,10.505937 c -2.886514,-3.1469326 -3,-7.0000016 -4.99999897,-10.00000257"
     id="path1129-5-2-8-7-4-5-7-6"
     inkscape:connector-curvature="0"
     sodipodi:nodetypes="ccc" />
  <path
     style="fill:none;stroke:#ffffff;stroke-width:1px;stroke-linecap:round;stroke-linejoin:round;stroke-opacity:1"
     d="M 10.505937,10.505938 C 8.5059386,7.5059364 8.5059386,3.5059364 5.5059386,0.50593543 c -2.886514,3.14693197 -3,7.00000097 -4.99999897,10.00000257"
     id="path1129-5-2-8-7-8-9-0-1-1"
     inkscape:connector-curvature="0"
     sodipodi:nodetypes="ccc" />
  <path
     style="fill:none;stroke:#ffffff;stroke-width:1px;stroke-linecap:round;stroke-linejoin:round;stroke-opacity:1"
     d="m 10.505938,10.505931 c 3.000001,-1.999998 7.000001,-1.999998 10.000002,-4.999998 -3.146932,-2.886514 -7.000001,-3 -10.000002,-4.99999857"
     id="path1129-5-2-8-7-8-9-0-1-1-0"
     inkscape:connector-curvature="0"
     sodipodi:nodetypes="ccc" />
  <path
     style="fill:none;stroke:#ffffff;stroke-width:1px;stroke-linecap:round;stroke-linejoin:round;stroke-opacity:1"
     d="M 20.505941,10.505931 C 17.505939,8.5059326 13.505939,8.5059326 10.505938,5.5059326 c 3.146932,-2.886514 7.000001,-3 10.000003,-4.99999897"
     id="path1129-5-2-8-7-8-9-0-1-1-0-6"
     inkscape:connector-curvature="0"
     sodipodi:nodetypes="ccc" />
  <path
     style="fill:none;stroke:#ffffff;stroke-width:1px;stroke-linecap:round;stroke-linejoin:round;stroke-opacity:1"
     d="m 20.505935,10.50593 c 3.000002,-1.999997 7.000002,-1.999997 10.000003,-4.9999971 -3.146932,-2.886514 -7.000001,-3 -10.000003,-4.99999847"
     id="path1129-5-2-8-7-8-9-0-1-1-0-1"
     inkscape:connector-curvature="0"
     sodipodi:nodetypes="ccc" />
  <path
     style="fill:none;stroke:#ffffff;stroke-width:1px;stroke-linecap:round;stroke-linejoin:round;stroke-opacity:1"
     d="M 30.505939,10.50593 C 27.505937,8.5059326 23.505937,8.5059326 20.505936,5.5059325 c 3.146932,-2.886514 7.000001,-3 10.000003,-4.99999887"
     id="path1129-5-2-8-7-8-9-0-1-1-0-6-5"
     inkscape:connector-curvature="0"
     sodipodi:nodetypes="ccc" />
  <path
     style="fill:none;stroke:#ffffff;stroke-width:1px;stroke-linecap:round;stroke-linejoin:round;stroke-opacity:1"
     d="M 0.50593963,10.50593 C 3.5059416,8.5059332 7.5059416,8.5059332 10.505943,5.5059332 c -3.1469324,-2.886514 -7.0000014,-3 -10.00000337,-4.99999877"
     id="path1129-5-2-8-7-8-9-0-1-1-0-9"
     inkscape:connector-curvature="0"
     sodipodi:nodetypes="ccc" />
  <path
     style="fill:none;stroke:#ffffff;stroke-width:1px;stroke-linecap:round;stroke-linejoin:round;stroke-opacity:1"
     d="M 10.505944,10.50593 C 7.5059416,8.5059328 3.5059416,8.5059328 0.50594063,5.5059328 c 3.14693197,-2.886514 7.00000097,-3 10.00000337,-4.99999937"
     id="path1129-5-2-8-7-8-9-0-1-1-0-6-4"
     inkscape:connector-curvature="0"
     sodipodi:nodetypes="ccc" />
  <path
     style="fill:none;stroke:#ffffff;stroke-width:1px;stroke-linecap:round;stroke-linejoin:round;stroke-opacity:1"
     d="M 0.50593363,30.505934 C 3.5059345,28.505937 7.5059345,28.505937 10.505936,25.505937 c -3.1469325,-2.886514 -7.0000015,-3 -10.00000237,-4.999999"
     id="path1129-5-2-8-7-8-9-0-1-1-0-90"
     inkscape:connector-curvature="0"
     sodipodi:nodetypes="ccc" />
  <path
     style="fill:none;stroke:#ffffff;stroke-width:1px;stroke-linecap:round;stroke-linejoin:round;stroke-opacity:1"
     d="M 10.505937,30.505934 C 7.505935,28.505937 3.505935,28.505937 0.50593363,25.505937 3.652866,22.619423 7.505935,22.505937 10.505937,20.505938"
     id="path1129-5-2-8-7-8-9-0-1-1-0-6-9"
     inkscape:connector-curvature="0"
     sodipodi:nodetypes="ccc" />
  <path
     style="fill:none;stroke:#ffffff;stroke-width:1px;stroke-linecap:round;stroke-linejoin:round;stroke-opacity:1"
     d="m 10.505933,30.505935 c 3.000001,-1.999997 7.000001,-1.999997 10.000002,-4.999997 -3.146932,-2.886514 -7.000001,-3 -10.000002,-4.999999"
     id="path1129-5-2-8-7-8-9-0-1-1-0-17"
     inkscape:connector-curvature="0"
     sodipodi:nodetypes="ccc" />
  <path
     style="fill:none;stroke:#ffffff;stroke-width:1px;stroke-linecap:round;stroke-linejoin:round;stroke-opacity:1"
     d="m 20.505936,30.505935 c -3.000001,-1.999998 -7.000001,-1.999998 -10.000002,-4.999998 3.146932,-2.886514 7.000001,-3 10.000002,-4.999999"
     id="path1129-5-2-8-7-8-9-0-1-1-0-6-7"
     inkscape:connector-curvature="0"
     sodipodi:nodetypes="ccc" />
  <path
     style="fill:none;stroke:#ffffff;stroke-width:1px;stroke-linecap:round;stroke-linejoin:round;stroke-opacity:1"
     d="m 20.505933,30.505937 c 3.000002,-1.999997 7.000002,-1.999997 10.000003,-4.999997 -3.146932,-2.886514 -7.000001,-3 -10.000003,-4.999999"
     id="path1129-5-2-8-7-8-9-0-1-1-0-11"
     inkscape:connector-curvature="0"
     sodipodi:nodetypes="ccc" />
  <path
     style="fill:none;stroke:#ffffff;stroke-width:1px;stroke-linecap:round;stroke-linejoin:round;stroke-opacity:1"
     d="m 30.505937,30.505937 c -3.000002,-1.999998 -7.000002,-1.999998 -10.000003,-4.999998 3.146932,-2.886514 7.000001,-3 10.000003,-4.999999"
     id="path1129-5-2-8-7-8-9-0-1-1-0-6-59"
     inkscape:connector-curvature="0"
     sodipodi:nodetypes="ccc" />
</svg>
